<?xml version="1.0" encoding="UTF-8" standalone="no"?>
<svg xmlns:rdf="http://www.w3.org/1999/02/22-rdf-syntax-ns#" xmlns="http://www.w3.org/2000/svg" height="450" width="890" xmlns:cc="http://creativecommons.org/ns#" xmlns:xlink="http://www.w3.org/1999/xlink" viewBox="0 0 890.00001 450.00001" xmlns:dc="http://purl.org/dc/elements/1.1/">
  <title>
    Lotus 79 Venturi-Prinzip
  </title>
  <defs>
    <marker id="p" overflow="visible" orient="auto">
      <path d="M0-2.828L-2.828 0 0 2.828 2.828 0 0-2.828z" fill-rule="evenodd" stroke="#000" stroke-width=".4pt" fill="#fff"/>
    </marker>
    <marker id="o" overflow="visible" orient="auto">
      <path d="M0-2.828L-2.828 0 0 2.828 2.828 0 0-2.828z" fill-rule="evenodd" stroke="#000" stroke-width=".4pt" fill="#fff"/>
    </marker>
    <marker id="m" overflow="visible" orient="auto">
      <path d="M0-2.828L-2.828 0 0 2.828 2.828 0 0-2.828z" fill-rule="evenodd" stroke="#000" stroke-width=".4pt" fill="#fff"/>
    </marker>
    <marker id="n" overflow="visible" orient="auto">
      <path d="M0-2.828L-2.828 0 0 2.828 2.828 0 0-2.828z" fill-rule="evenodd" stroke="#000" stroke-width=".4pt" fill="#fff"/>
    </marker>
    <linearGradient id="c">
      <stop stop-color="#8dffd4" offset="0"/>
      <stop stop-color="red" offset="1"/>
    </linearGradient>
    <linearGradient id="b">
      <stop stop-color="red" offset="0"/>
      <stop stop-color="#8dffd4" offset="1"/>
    </linearGradient>
    <linearGradient id="f" y2="230.15" xlink:href="#a" gradientUnits="userSpaceOnUse" x2="744.68" y1="230.15" x1="318.7"/>
    <linearGradient id="a">
      <stop stop-color="#3787ff" offset="0"/>
      <stop stop-color="#b0cfff" offset="1"/>
    </linearGradient>
    <linearGradient id="d" y2="224.01" xlink:href="#a" gradientUnits="userSpaceOnUse" x2="598.56" gradientTransform="matrix(.97586 -.08908 0 1 39.225 149.95)" y1="224.01" x1="343.74"/>
    <linearGradient id="e" y2="224.01" xlink:href="#a" gradientUnits="userSpaceOnUse" x2="598.56" gradientTransform="matrix(.97586 -.08908 0 1 .486 39.514)" y1="224.01" x1="343.74"/>
    <linearGradient id="k" y2="277.79" gradientUnits="userSpaceOnUse" x2="709.49" gradientTransform="matrix(.97586 -.08908 0 1 .486 39.514)" y1="277.79" x1="636.74">
      <stop stop-color="#b3b3b3" offset="0"/>
      <stop stop-color="#dedede" offset="1"/>
    </linearGradient>
    <linearGradient id="g" y2="162.89" xlink:href="#b" gradientUnits="userSpaceOnUse" x2="737.98" gradientTransform="matrix(.99968 -.00646 -.208 1.0017 -52.334 8.796)" y1="165.56" x1="541.88"/>
    <linearGradient id="h" y2="260.61" xlink:href="#c" gradientUnits="userSpaceOnUse" x2="401.83" gradientTransform="matrix(.99968 -.04292 -.208 1.0092 -41.53 18.06)" y1="260.61" x1="337.36"/>
    <linearGradient id="i" y2="307.12" xlink:href="#b" gradientUnits="userSpaceOnUse" x2="792.99" gradientTransform="matrix(.99968 -.04292 -.208 1.0092 -52.334 14.34)" y1="305.34" x1="603.12"/>
    <linearGradient id="j" y2="137.41" xlink:href="#c" gradientUnits="userSpaceOnUse" x2="367.21" gradientTransform="matrix(.99968 -.00646 -.208 1.0017 -54.533 8.796)" y1="137.41" x1="282.33"/>
    <linearGradient id="l" y2="349.39" xlink:href="#c" gradientUnits="userSpaceOnUse" x2="443.97" gradientTransform="matrix(1.4079 0 0 .99203 -97.623 75.463)" y1="349.39" x1="98.937"/>
  </defs>
  <metadata>
    <rdf:RDF>
      <cc:Work>
        <dc:format>
          image/svg+xml
        </dc:format>
        <dc:type rdf:resource="http://purl.org/dc/dcmitype/StillImage"/>
        <dc:title>
          Lotus 79 Venturi-Prinzip
        </dc:title>
        <dc:creator>
          <cc:Agent>
            <dc:title>
              MagentaGreen
            </dc:title>
          </cc:Agent>
        </dc:creator>
      </cc:Work>
    </rdf:RDF>
  </metadata>
<rect fill-rule="evenodd" height="450" width="890" y="0" x="0" fill="#FFF"/>
  <g stroke-linejoin="round" stroke-linecap="round">
    <g stroke="#000">
      <path fill-rule="evenodd" fill="#f2f2f2" d="M83.9 282.95c2.534 9.604 7.247 10.26 13.916 10.54 15.78.246 31.505-.275 42.352-1.945.745-.137 1.182-.37 1.692-1.546l-1.088-9.01c-.027-.94-.588-1.97-1.52-2.27-18.706-.45-34.557.14-53.59 1.84-1.396.13-2.13.91-1.762 2.38z"/>
      <path fill-rule="evenodd" fill="gray" d="M68.175 188.69l30.403 67.555c.41.762.72.97 1.486 1.158 13.775 3.292 24.113 3.328 34.983-.287 1.386-.517 2.1-2.046 1.284-3.903l-29.36-66.19c-15.97-4.168-23.48-4.428-38.79 1.667z" transform="matrix(.97586 -.08908 0 1 .486 39.514)"/>
      <path fill-rule="evenodd" fill="#e6e6e6" d="M66.176 188.09l31.145 69.792c.41.762.73.97 1.49 1.158 13.78 3.292 24.71 2.223 35.58-1.393 1.39-.516 1.51-.94.69-2.797l-30.1-68.426c-15.97-4.17-23.47-4.43-38.79 1.666z" transform="matrix(.97586 -.08908 0 1 .486 39.514)"/>
      <path fill="none" d="M87.84 236.8c.408.762.72.97 1.485 1.158 13.775 3.292 24.706 2.223 35.576-1.392 1.39-.517 3-2.256 2.18-4.113m-52.09-24.62c.41.762.73.97 1.49 1.158 13.78 3.3 24.71 2.23 35.58-1.39 1.39-.51 2.99-2.25 2.18-4.11" transform="matrix(.97586 -.08908 0 1 .486 39.514)"/>
      <g fill-rule="evenodd">
        <path stroke-width=".988" fill="#ccc" d="M554.49 283.89c.804 1.73 228.91-16.98 228.91-16.98s31.616-13.115 27.478-12.737l-97.465 8.897c-6.072.554-12.993-3.37-15.518-8.797l-55.11-118.43c-2.526-5.428.33-10.243 6.4-10.798l47.994-4.38.69-17.524-150.45 3.98z"/>
        <path fill="gray" d="M751.77 233.53c-2.706 4.2-5.042 11.81-1.97 17.395 15.004 27.303-21.077 70.514-18.93 74.966 5.658 11.74 43.277 7.47 49.57 1.19 9.73-9.7 43.395-46.54 64.1-91.45 4.217-9.15.107-14.89-7.573-14.4-17.884 1.14-48.276.84-75.1 4.06-4.17.5-7.777 4.66-10.097 8.26z"/>
        <path fill="#eee" d="M749.59 231.84c-2.706 4.2-5.042 11.81-1.97 17.395 15.004 27.303-21.077 70.514-18.93 74.965 5.658 11.738 43.277 7.466 49.57 1.187 9.728-9.704 43.394-46.544 64.098-91.456 4.218-9.14.108-14.88-7.572-14.4-17.884 1.14-48.276.84-75.1 4.06-4.17.5-7.777 4.66-10.097 8.26z"/>
      </g>
      <path fill="#999" d="M190.1 161.06l-30.423-9.214c-.746-.253-1.515-.228-2.31-.227l-23.85 2.25c-2.707.3-4.884 1.3-6.003 2.42l-16.934 18.74"/>
      <path fill="#b3b3b3" d="M108.7 174.8l-56.864 17.032c-8.208 1.338-23.496 7.166-21.476 16.756l619.03 86.568c8.102-20.704 35.89-19.88 62.86-19.435 18.73.31 35.412 1.96 37.617 8.3l37.567 1.33c5.334-2.74-10.208-8.06-10.208-8.06-7.636-2.82-47.373-17.21-73.654-27.27-13.103 10.24-98.528-52.69-98.528-52.69-28.724-2.71-40.958-80.46-36.49-83.82 7.79-4.56 107.24-11.48 102.8 11.34-1.065 5.47 9.615-39 4.95-36.59-26.184 13.55-84.24 11.508-88.953 9.31-10.52-4.89-7.03-14.3-11.96-19.03-4.43-4.252-15.17-1.61-15.17-1.61L522 155.258l-276.83 1.393-53.767 3.14z"/>
      <path fill-rule="evenodd" fill="gray" d="M32.162 120.11l24.833 73.75c.317.735.598.918 1.324 1.04 13.06 2.108 23.42 1.11 34.39-3.516 1.4-.646 1.96-2.14 1.36-3.946l-23.97-72.46c-15.11-2.8-22.39-2.396-37.95 5.133z"/>
      <g fill-rule="evenodd">
        <path fill="#d40000" d="M738.94 243.38a28.344 23.56 0 0 1-28.27 23.56 28.344 23.56 0 0 1-28.416-23.44 28.344 23.56 0 0 1 28.126-23.678 28.344 23.56 0 0 1 28.56 23.318" transform="matrix(.97586 -.08908 -.2265 .99336 9.197 76.44)"/>
        <path fill="#e6e6e6" d="M736.25 241.94a28.344 23.56 0 0 1-28.27 23.56 28.344 23.56 0 0 1-28.416-23.44 28.344 23.56 0 0 1 28.126-23.678 28.344 23.56 0 0 1 28.56 23.318" transform="matrix(.97586 -.08908 -.2265 .99336 9.197 76.44)"/>
        <path fill="url(#d)" d="M290.41 289.45l339.03 19.36-12.264 43.11-282.06-26.594c-22.554-1.863-38.367-18.573-44.705-35.876z"/>
        <path fill="url(#e)" d="M249.33 175.1l334.74 4.406-5.623 61.982-313.95-24.55"/>
      </g>
      <path fill="url(#f)" d="M651.64 136.96c15.668 1.3 41.4 54.826 35.34 56.745-77.998 33.387-313.51 25.576-347.38-26.107-5.115-9.64-27.455-44.136-38.707-62.015-1.477-2.347 322.9 56.86 319.52 61.113 1.018-.916 4.434 2.822 5.656.96 7.61-11.61 17.87-31.334 25.57-30.696zm-235.5 159.93c-6.622-3.935-24.667-36.51-28.297-43.545-2.738-5.304-.178-9.25 5.474-9.005 19.104 1.598 305.28 33.73 338.23 64.304l4.458-16.27s24.687 2.328 18.355 5.974c6.58 5.665 9.905 17.335 7.582 25.948-87.74 21.71-278.18 17.063-345.8-27.407z" transform="matrix(.97555 -.06045 -.20297 1.0129 -47.96 26.685)"/>
      <g stroke="#0f0" fill="none">
        <path d="M683.68 178.32c-78.8 33.02-317.87 27.48-351.63-24.03m344.43 10.41c-77.997 33.387-319.01 27.994-352.88-23.69m344.9 10.39c-77.99 33.39-319.37 28.01-353.24-23.67m434.01 169.68c-4.25 1.052-13.353 2.868-18.06 3.795-92.455 18.198-268 11.94-332.35-30.375m361.35 38.13c-78.97 20.33-258.51 32.13-354.18-25.06m331.96 1.25c-87.74 21.71-278.18 17.06-345.8-27.41m337.65 14.36c-87.74 21.71-278.18 17.06-345.8-27.41" transform="matrix(.97555 -.06045 -.20297 1.0129 -47.96 26.685)"/>
        <path d="M734.12 295.85c.564.486 4.24 5.4 4.756 5.968 5.49 6.06 8.087 16.49 5.962 24.364-1.93 21.5-3.378 34.81-3.95 41.72" transform="matrix(.97555 -.06045 -.20297 1.0129 -47.96 26.685)"/>
      </g>
      <path fill="gray" d="M731.54 308.64l4.458-16.27s24.687 2.328 18.355 5.974c6.58 5.665 9.905 17.335 7.58 25.948-1.93 21.5-3.377 34.81-3.95 41.72-.18 2.422.985.032.985.032l.02-.042c8.375-17.52 18.49-33.985 20.457-54.49l-63.98-100.15-20.95 42.64s17.046 24.558 37.01 54.642z" transform="matrix(.97555 -.06045 -.20297 1.0129 -47.96 26.685)"/>
      <path stroke="#0f0" fill="none" d="M720.38 302.4c6.58 5.665 9.905 17.335 7.58 25.948-1.93 21.5-3.377 34.81-3.95 41.72m-23.81-70.72c.564.486 4.24 5.4 4.756 5.968 5.49 6.06 8.087 16.49 5.962 24.364-1.93 21.5-3.378 34.81-3.95 41.72m-23.41-68.78c.564.486 4.24 5.4 4.756 5.968 5.49 6.06 8.087 16.49 5.962 24.364-1.197 13.33-2.208 23.51-2.94 30.972m-28.92-66.28c.564.486 7.93 9.767 8.446 10.336 5.49 6.06 8.087 16.49 5.962 24.364-1.13 12.573-2.093 22.345-2.813 29.675" transform="matrix(.97555 -.06045 -.20297 1.0129 -47.96 26.685)"/>
      <path fill="#aa87de" d="M355.12 326.7c-1.18 4.027-2.286 6.586-3.412 11.018-.526 2.616 7.747 4.166 16.967 5.623 74.447 11.77 211.05 21.93 239.8 25.15.845-5.59 5.705-16.89 5.705-16.89z"/>
    </g>
    <g stroke="#0f0" fill="none">
      <path d="M541.66 132.06c12.86.316 25.143 38.95 24.46 51.52-2.493 22.64-4.29 45.636-6.306 68.403m-36.43-112.8c12.86.316 25.143 38.95 24.46 51.52-2.493 22.64-4.29 45.636-6.306 68.403m23.29-131.14c-85.13 37.5-313.95 45.83-336.26-3.93"/>
      <path d="M505.11 144.48c12.86.316 25.143 38.95 24.46 51.52-2.493 22.64-4.29 45.636-6.306 68.403"/>
    </g>
    <path stroke="#000" fill="gray" d="M516.8 133.06c-.965-2.288 11.662 27.102 11.636 25.962 8.53-7.155 22.94-33.205 31.502-32.994 12.86.316 25.143 38.95 24.46 51.52-2.493 22.64-4.29 45.636-6.306 68.403l28.525-50.01-45.76-105.21z"/>
    <path d="M486.83 149.06c12.86.316 25.143 38.95 24.46 51.52-2.493 22.64-4.29 45.637-6.306 68.403M468.56 152.18c12.86.316 25.143 38.95 24.46 51.52-2.493 22.64-4.29 45.636-6.306 68.403M450.28 156.4c12.86.316 25.143 38.95 24.46 51.52-2.493 22.64-4.29 45.636-6.306 68.403" stroke="#0f0" fill="none"/>
    <g stroke="#000">
      <path fill="#aa87de" d="M270.69 143.71c-1.18 4.07-2.286 8.27-3.412 12.742-.526 2.635 7.747 3.884 16.967 5.004 74.447 9.048 207.16 13.73 235.9 15.9.845-5.627 4.115-17.98 4.115-17.98z"/>
      <path fill-rule="evenodd" fill="#e6e6e6" d="M697.24 214.7c1.724.142 3.01.38 3.77 2.12l9.665 19.24c.497 1.427.68 2.167-.39 4.103l-17.755 29.24-28.892-29.59z"/>
      <path fill-rule="evenodd" fill="#b3b3b3" d="M580.5 238.46l25.427-42.463c29.308 10.82 56.797 14.867 91.4 18.418l-18.953 31.227-92.834 4.095z"/>
    </g>
    <g fill-rule="evenodd">
      <g stroke="#000">
        <path fill="#d40000" d="M738.94 243.38a28.344 23.56 0 0 1-28.27 23.56 28.344 23.56 0 0 1-28.416-23.44 28.344 23.56 0 0 1 28.126-23.678 28.344 23.56 0 0 1 28.56 23.318" transform="matrix(.97586 -.08908 -.2265 .99336 .486 39.514)"/>
        <path fill="#e6e6e6" d="M736.25 241.94a28.344 23.56 0 0 1-28.27 23.56 28.344 23.56 0 0 1-28.416-23.44 28.344 23.56 0 0 1 28.126-23.678 28.344 23.56 0 0 1 28.56 23.318" transform="matrix(.97586 -.08908 -.2265 .99336 .486 39.514)"/>
        <path d="M732.61 242.03a24.71 20.54 0 0 1-24.648 20.54 24.71 20.54 0 0 1-24.774-20.436 24.71 20.54 0 0 1 24.522-20.644 24.71 20.54 0 0 1 24.9 20.33" transform="matrix(.97586 -.08908 -.2265 .99336 .486 39.514)" stroke-dasharray="12.16727999, 12.16727999" stroke-width="3.079" fill="#e6e6e6"/>
      </g>
      <path d="M643.81 214.68a8.44 5.928-29.206 0 1-9.25 7.282 8.44 5.928-29.206 0 1-6.3-5.83 8.44 5.928-29.206 0 1 9.22-7.312 8.44 5.928-29.206 0 1 6.345 5.793"/>
      <path stroke="#000" fill="#ccc" d="M702.86 139.41l48.847 102.91c9.21 19.403 60.676 7.55 86.406-8.15 3.587-2.19 5.09-5.708 3.554-9.115l-75.25-166.92-56.96 13.133z"/>
      <g stroke="#000">
        <path fill="gray" d="M770.35 89.59c12.58 52.244-11.828 73.38-7.473 77.68 8.44 8.334 43.47 7.823 49.275 3.377 23.397-26.316 42.364-57.98 54.346-82.816 4.16-9.4-2.352-13.56-10.413-14.03-16.31-.97-42.21-3.51-70.408-3.06-7.816.13-16.353 14.61-15.327 18.87z" transform="matrix(.98055 -.0609 -.02928 .99708 -81.04 32.546)"/>
        <path fill="#eee" d="M768.03 88.45c12.58 52.244-11.828 73.38-7.473 77.68 8.44 8.334 43.47 7.823 49.275 3.377 23.397-26.316 42.364-57.98 54.346-82.816 4.16-9.4-2.352-13.56-10.413-14.03-16.31-.97-42.21-3.51-70.408-3.06-7.816.13-16.353 14.61-15.327 18.87z" transform="matrix(.98055 -.0609 -.02928 .99708 -81.04 32.546)"/>
      </g>
    </g>
    <path stroke="#000" fill="none" d="M753.08 202.13c19.66.082 46.206-8.3 62.478-18.23 3.587-2.19 5.1-5.712 3.554-9.115m-87.55-43.66c17.93-2.103 38.692-9.32 52.285-17.614 3.587-2.19 5.1-5.71 3.554-9.11"/>
    <g fill-rule="evenodd">
      <path fill="#333" d="M699.83 217.92l.015.032 9.467 18.773c.472 1.074.16 1.982-.275 2.777l-.002.004-14.49 23.87s-1.49 3.004-2.663.31l-8.907-18.558c-.84-1.415-.8-2.582-.177-3.624l13.995-23.357c1.23-1.74 2.25-1.348 3.037-.227z"/>
      <g stroke="#000">
        <path fill="#e6e6e6" d="M30.21 122.29l24.833 73.75c.317.735.598.918 1.324 1.04 13.062 2.108 23.818.055 34.79-4.57 1.403-.645 1.567-1.085.97-2.892l-23.966-72.46c-15.1-2.8-22.38-2.396-37.95 5.133z"/>
        <path fill="#f2f2f2" d="M20.455 116.65c2.17 9.538 6.838 9.967 13.47 9.928 15.704-.52 31.386-1.808 42.25-4.014.746-.174 1.19-.43 1.742-1.638l-.75-9.005c.007-.94-.515-1.94-1.43-2.2-18.614.46-34.422 1.83-53.44 4.46-1.395.2-2.155 1.02-1.843 2.48z"/>
        <path fill="url(#g)" d="M492.64 193.55c58.127-7.473 110.35-21.93 139.98-33.186l.17 8.21 23.046-26.618-29.485.024 4.1 7.522c-29.63 11.257-81.85 25.713-139.98 33.186z"/>
        <path fill="url(#h)" d="M281.9 278.16l-1.89-8.655c5.2 7.892 12.237 13.062 19.9 18.28-1.11.425-2.164.87-3.174 1.345-3.965 1.87-7.274 4.24-10.89 7.888l-1.377-7.386c-19.79-11.83-31.83-37.506-35.62-56.4 6.21 17.802 18.34 33.425 33.05 44.928z"/>
        <path fill="url(#i)" d="M518.45 318.58c57.392-6.028 108.98-19.288 138.26-29.905l.146 8.323 22.817-26.356-29.102-.758 4.03 7.728c-29.27 10.618-80.86 23.877-138.26 29.905z"/>
        <path fill="url(#j)" d="M239.74 156.55l-1.94-8.49c5.288 7.652 12.433 12.568 20.21 17.516-5.537 2.206-9.64 4.845-14.222 9.485l-1.416-7.25c-20.072-11.15-32.34-36.17-36.238-54.72 6.346 17.41 18.673 32.5 33.605 43.47z"/>
      </g>
    </g>
    <g stroke="#000">
      <path fill-rule="evenodd" fill="red" d="M328.48 176.79c12.457 2.28 25.52 3.878 38.97 4.89l-2.698-7.94s21.202 14.092 26.993 16.29c-3.685.36-21.337 12.213-21.337 12.213l-1.49-6.3c-15.257-.974-26.372-2.124-40.403-4.692zm28.13 119.76c12.29 2.64 25.18 4.606 38.45 5.99l-2.64-8.116s20.888 14.84 26.597 17.22c-3.64.264-21.092 11.805-21.092 11.805l-1.455-6.43c-15.055-1.4-26.295-2.31-40.137-5.29z"/>
      <path fill="#999" d="M571.89 235.19l47.562 4.81 19.355 43.54-45.137-2.948z"/>
      <path fill="url(#k)" d="M622.35 246.49c21.32-11.302 57.83-3.725 57.83-3.725l12.188 26.91s-33.332-5.233-56.356 7.502z"/>
      <path fill="none" d="M574.33 241.58l47.562 4.81m10.768 24.46l-45.13-2.95m-10.56-19.94l47.562 4.81m5.148 11.73l-45.137-2.95m-5.093-7.19l48.246 4.835m8.284 17.975l-45.137-2.95"/>
      <path fill="#ccc" d="M603.05 295.1c-181.74-16.71-429.11-41.28-561.31-76.63-5.16-1.396-8.54-2.982-9.59-5.403l-2.096-4.943c-.565-2.603 2.282-3.752 5.673-4.19 149.55-6.92 538.33 31.533 538.33 31.533z"/>
      <path fill="gray" d="M597.35 282.72c1.84 3.97 3.75 8.112 5.693 12.368l5.37-11.758"/>
      <path d="M15.286 411.86h486.38v22.662H15.286z" fill-rule="evenodd" stroke-dashoffset="6" fill="url(#l)"/>
    </g>
    <g fill="none">
      <path stroke="#fff" stroke-width="3" d="M543.5 297.59l-39.026-39.12h-153.93m153.76-.13l54.086-54.215"/>
      <g stroke="#000">
        <path marker-start="url(#m)" d="M543.57 264.36l-38.53-38.622H351.1" transform="translate(-.565 32.744)"/>
        <path marker-start="url(#n)" d="M558.96 171.38l-54.086 54.215" transform="translate(-.565 32.744)"/>
      </g>
    </g>
    <g fill="none">
      <path stroke="#fff" stroke-width="3" d="M273.63 178.97l-13.408 53.177h-138.81m187.86 53.29l-48.96-53.24"/>
      <g stroke="#000">
        <path marker-start="url(#o)" d="M273.63 178.97l-13.408 53.177h-138.81"/>
        <path marker-start="url(#p)" d="M309.27 285.44l-48.96-53.24"/>
        <path d="M38.192 145.88c.317.735.598.918 1.324 1.04 13.062 2.108 23.818.055 34.79-4.57 1.403-.645 4.2-2.27 3.602-4.077m-29.284 38.95c.317.735.598.918 1.324 1.04 13.062 2.108 23.79.056 34.76-4.57 1.405-.645 4.202-2.27 3.604-4.076"/>
      </g>
    </g>
    <g font-family="'DejaVu Sans'">
      <g font-size="20">
        <switch>
          <text systemLanguage="de">
            <tspan y="399.199" x="370.227">nimmt ab</tspan>
          </text>
          <text systemLanguage="fr">
            <tspan y="399.199" x="370.198">diminue</tspan>
          </text>
          <text>
            <tspan y="399.199" x="370.12">decreases</tspan>
          </text>
        </switch>
        <switch>
          <text systemLanguage="de">
            <tspan y="399.199" x="210.799">Luftdruck</tspan>
          </text>
          <text systemLanguage="fr">
            <tspan y="399.199" x="196.576">Pression d&apos;air</tspan>
          </text>
          <text y="4.2">
            <tspan y="399.523" x="196.737">Air pressure</tspan>
          </text>
        </switch>
        <switch>
          <text systemLanguage="de">
            <tspan y="399.199" x="48.771">nimmt zu</tspan>
          </text>
          <text systemLanguage="fr">
            <tspan y="399.199" x="48.771">augmente</tspan>
          </text>
          <text>
            <tspan y="399.199" x="48.771">increases</tspan>
          </text>
        </switch>
        <switch>
          <text systemLanguage="de">
            <tspan y="227.532" x="120.567">Düsenbereich</tspan>
          </text>
          <text systemLanguage="fr">
            <tspan y="227.532" x="120.567">Zone de buse</tspan>
          </text>
          <text>
            <tspan y="227.532" x="120.567">Nozzle area</tspan>
          </text>
        </switch>
        <switch>
          <text systemLanguage="de">
            <tspan y="252.729" x="348.945">Diffusorbereich</tspan>
          </text>
          <text systemLanguage="fr">
            <tspan y="252.729" x="349.945">Zone diffuseur</tspan>
          </text>
<!--<text><tspan x="419.97498" y="232.17715"/></text>-->
          <text>
            <tspan y="252.729" x="349.945">Diffuser area</tspan>
          </text>
        </switch>
      </g>
      <g font-size="16">
        <switch transform="rotate(4)">
          <text systemLanguage="de">
            <tspan y="138.417" x="303.547">Seitenschürze aus Gummi</tspan>
          </text>
          <text systemLanguage="fr">
            <tspan y="138.485" x="301.821">Jupe latéral en caoutchouc</tspan>
          </text>
          <text y="-31.323" x="10.247">
            <tspan y="138.544" x="339.611">Rubber side skirt</tspan>
          </text>
        </switch>
        <switch transform="rotate(5.5)">
          <text systemLanguage="de">
            <tspan y="305.368" x="416.09">Seitenschürze aus Gummi</tspan>
          </text>
          <text systemLanguage="fr">
            <tspan y="305.598" x="414.131">Jupe latéral en caoutchouc</tspan>
          </text>
          <text y="-55.672" x="2.641">
            <tspan y="305.1" x="444.612">Rubber side skirt</tspan>
          </text>
        </switch>
      </g>
      <g font-size="32">
        <text>
          <tspan y="402.8" x="12.271">←</tspan>
        </text>
        <text>
          <tspan y="402.8" x="477.514">→</tspan>
        </text>
      </g>
    </g>
  </g>
  <path stroke-linejoin="round" d="M219.13 113.16c-2.304-16.63 3.19-19.21 30.84-19.933 90.34-2.372 166.6 2.276 252.03 3.162.736-.45 1.065-2.49 3.798-3.6 17.014-6.95 56.102-19 68.945-21.4 0 0 .092 1.26-.453 1.91-17.548 20.95-42.59 51.53-46.14 85.23l-291.3-16.35c-7.862-.1-16.15-17.68-17.722-29.03z" stroke="#000" fill="#ccc"/>
  <path d="M524.03 160.37c3.624-15.053 6.075-25.327 12.088-36.92l-252.95-13.06c-4.345 8.293-9.575 23.31-12.504 33.335" stroke="#000" stroke-dasharray="5.92725698, 5.92725698" fill="#bfa6e6"/>
</svg>
